<svg xmlns="http://www.w3.org/2000/svg" width="24" height="24" viewBox="0 0 32 32" xml:space="preserve"><path d="M18.5 28h-5a.5.5 0 0 1-.5-.5v-1a.5.5 0 0 1 .5-.5h5a.5.5 0 0 1 .5.5v1a.5.5 0 0 1-.5.5m1.5-3.5v-1a.5.5 0 0 0-.5-.5h-7a.5.5 0 0 0-.5.5v1a.5.5 0 0 0 .5.5h7a.5.5 0 0 0 .5-.5m-7.995-5.568a8 8 0 1 1 7.995 0V21.5a.5.5 0 0 1-.5.5H18v-5.134c.163-.392 1.415-2.609 1.415-2.609A1.498 1.498 0 0 0 18.12 12h-4.24a1.5 1.5 0 0 0-1.292 2.263L14 16.866V22h-1.5a.5.5 0 0 1-.5-.5zM17 22v-5.271c0-.323 1.552-2.977 1.552-2.977A.499.499 0 0 0 18.12 13h-4.24a.499.499 0 0 0-.431.753s1.552 2.652 1.552 2.977V22z" style="fill:#fff"/></svg>